<svg xmlns="http://www.w3.org/2000/svg" width="1810" height="850"><g fill="none" fill-rule="evenodd"><path fill="#6EB0DE" fill-rule="nonzero" stroke="#6EB0DE" d="M904 422l90 5-77-77z"/><path fill="#6DAFDD" fill-rule="nonzero" stroke="#6DAFDD" d="M994 427l13-72-90-5z"/><path fill="#77B5E0" fill-rule="nonzero" stroke="#77B5E0" d="M904 422l75 75 15-70z"/><path fill="#7AB7E0" fill-rule="nonzero" stroke="#7AB7E0" d="M904 422l18 103 57-28z"/><path fill="#7EB9E1" fill-rule="nonzero" stroke="#7EB9E1" d="M979 497l73-12-58-58z"/><path fill="#71B2DE" fill-rule="nonzero" stroke="#71B2DE" d="M994 427l93-77-80 5z"/><path fill="#84BCE3" fill-rule="nonzero" stroke="#84BCE3" d="M967 570l85-85-73 12z"/><path fill="#69ADDC" fill-rule="nonzero" stroke="#69ADDC" d="M917 350l-104 66 91 6z"/><path fill="#77B5E0" fill-rule="nonzero" stroke="#77B5E0" d="M904 422l-69 101 87 2z"/><path fill="#78B6E0" fill-rule="nonzero" stroke="#78B6E0" d="M1098 446l-11-96-93 77z"/><path fill="#63AADB" fill-rule="nonzero" stroke="#63AADB" d="M1007 355l-13-98-77 93z"/><path fill="#60A9DB" fill-rule="nonzero" stroke="#60A9DB" d="M1064 242l-70 15 13 98z"/><path fill="#5FA8DB" fill-rule="nonzero" stroke="#5FA8DB" d="M917 350l-127-42 23 108z"/><path fill="#7EB9E1" fill-rule="nonzero" stroke="#7EB9E1" d="M1052 485l46-39-104-19z"/><path fill="#56A3D9" fill-rule="nonzero" stroke="#56A3D9" d="M883 231l-40 45 74 74z"/><path fill="#6FB1DE" fill-rule="nonzero" stroke="#6FB1DE" d="M813 416l22 107 69-101z"/><path fill="#59A5D9" fill-rule="nonzero" stroke="#59A5D9" d="M994 257l-111-26 34 119z"/><path fill="#84BDE3" fill-rule="nonzero" stroke="#84BDE3" d="M900 588l67-18-45-45z"/><path fill="#82BBE2" fill-rule="nonzero" stroke="#82BBE2" d="M922 525l45 45 12-73z"/><path fill="#84BDE3" fill-rule="nonzero" stroke="#84BDE3" d="M1052 485l81-4-35-35z"/><path fill="#4B9ED7" fill-rule="nonzero" stroke="#4B9ED7" d="M708 226l82 82 53-32z"/><path fill="#58A5D9" fill-rule="nonzero" stroke="#58A5D9" d="M843 276l-53 32 127 42z"/><path fill="#6FB1DE" fill-rule="nonzero" stroke="#6FB1DE" d="M813 416l-71 99 93 8z"/><path fill="#68ADDC" fill-rule="nonzero" stroke="#68ADDC" d="M1087 350l-23-108-57 113z"/><path fill="#4EA0D7" fill-rule="nonzero" stroke="#4EA0D7" d="M994 257l-74-74-37 48z"/><path fill="#7AB7E0" fill-rule="nonzero" stroke="#7AB7E0" d="M1098 446l42-43-53-53z"/><path fill="#67ACDC" fill-rule="nonzero" stroke="#67ACDC" d="M1087 350l86-84-109-24z"/><path fill="#7FB9E1" fill-rule="nonzero" stroke="#7FB9E1" d="M835 523l65 65 22-63z"/><path fill="#8BC0E4" fill-rule="nonzero" stroke="#8BC0E4" d="M1132 565l1-84-81 4z"/><path fill="#82BBE2" fill-rule="nonzero" stroke="#82BBE2" d="M1098 446l35 35 7-78z"/><path fill="#4D9FD7" fill-rule="nonzero" stroke="#4D9FD7" d="M995 173l-75 10 74 74z"/><path fill="#4A9ED7" fill-rule="nonzero" stroke="#4A9ED7" d="M883 231l-39-39-1 84z"/><path fill="#4B9ED7" fill-rule="nonzero" stroke="#4B9ED7" d="M664 352l76-9-32-117z"/><path fill="#5AA5DA" fill-rule="nonzero" stroke="#5AA5DA" d="M790 308l-50 35 73 73z"/><path fill="#55A3D8" fill-rule="nonzero" stroke="#55A3D8" d="M1064 242l-69-69-1 84z"/><path fill="#3E98D5" fill-rule="nonzero" stroke="#3E98D5" d="M932 110l-88 82 76-9z"/><path fill="#469CD6" fill-rule="nonzero" stroke="#469CD6" d="M920 183l-76 9 39 39z"/><path fill="#7FB9E1" fill-rule="nonzero" stroke="#7FB9E1" d="M1245 423l-64-64-41 44z"/><path fill="#77B5E0" fill-rule="nonzero" stroke="#77B5E0" d="M1140 403l41-44-94-9z"/><path fill="#4FA0D8" fill-rule="nonzero" stroke="#4FA0D8" d="M1064 242l-1-86-68 17z"/><path fill="#5DA7DA" fill-rule="nonzero" stroke="#5DA7DA" d="M740 343l-27 58 100 15z"/><path fill="#78B5E0" fill-rule="nonzero" stroke="#78B5E0" d="M742 515l85 85 8-77z"/><path fill="#7FBAE2" fill-rule="nonzero" stroke="#7FBAE2" d="M835 523l-8 77 73-12z"/><path fill="#66ACDC" fill-rule="nonzero" stroke="#66ACDC" d="M713 401l29 114 71-99z"/><path fill="#8CC1E5" fill-rule="nonzero" stroke="#8CC1E5" d="M1094 612l-42-127-85 85z"/><path fill="#90C4E6" fill-rule="nonzero" stroke="#90C4E6" d="M1094 612l38-47-80-80z"/><path fill="#7CB8E1" fill-rule="nonzero" stroke="#7CB8E1" d="M1245 423l-19-104-45 40z"/><path fill="#95C6E7" fill-rule="nonzero" stroke="#95C6E7" d="M1094 612l-127-42 100 100z"/><path fill="#70B1DE" fill-rule="nonzero" stroke="#70B1DE" d="M1181 359l-8-93-86 84z"/><path fill="#8BC0E4" fill-rule="nonzero" stroke="#8BC0E4" d="M915 688l52-118-67 18z"/><path fill="#52A2D8" fill-rule="nonzero" stroke="#52A2D8" d="M1155 163l-92-7 1 86z"/><path fill="#419AD5" fill-rule="nonzero" stroke="#419AD5" d="M995 173l-63-63-12 73z"/><path fill="#3D98D4" fill-rule="nonzero" stroke="#3D98D4" d="M1009 102l-77 8 63 63z"/><path fill="#87BEE3" fill-rule="nonzero" stroke="#87BEE3" d="M1221 484l-81-81-7 78z"/><path fill="#71B2DE" fill-rule="nonzero" stroke="#71B2DE" d="M1181 359l45-40-53-53z"/><path fill="#3D98D4" fill-rule="nonzero" stroke="#3D98D4" d="M1057 65l-48 37 54 54z"/><path fill="#58A5D9" fill-rule="nonzero" stroke="#58A5D9" d="M664 352l6 91 43-42z"/><path fill="#63AADB" fill-rule="nonzero" stroke="#63AADB" d="M713 401l-43 42 72 72z"/><path fill="#55A3D9" fill-rule="nonzero" stroke="#55A3D9" d="M664 352l49 49 27-58z"/><path fill="#96C7E7" fill-rule="nonzero" stroke="#96C7E7" d="M1230 578l-9-94-89 81z"/><path fill="#8FC3E5" fill-rule="nonzero" stroke="#8FC3E5" d="M1132 565l89-81-88-3z"/><path fill="#459BD6" fill-rule="nonzero" stroke="#459BD6" d="M708 226l135 50 1-84z"/><path fill="#4C9FD7" fill-rule="nonzero" stroke="#4C9FD7" d="M708 226l32 117 50-35z"/><path fill="#73B3DF" fill-rule="nonzero" stroke="#73B3DF" d="M649 592l95 10-2-87z"/><path fill="#78B6E0" fill-rule="nonzero" stroke="#78B6E0" d="M742 515l2 87 83-2z"/><path fill="#88BFE4" fill-rule="nonzero" stroke="#88BFE4" d="M827 600l88 88-15-100z"/><path fill="#2F93D2" fill-rule="nonzero" stroke="#2F93D2" d="M675 193l33 33-4-89z"/><path fill="#86BEE3" fill-rule="nonzero" stroke="#86BEE3" d="M1221 484l24-61-105-20z"/><path fill="#5CA7DA" fill-rule="nonzero" stroke="#5CA7DA" d="M1155 163l-91 79 109 24z"/><path fill="#449BD5" fill-rule="nonzero" stroke="#449BD5" d="M1063 156l-54-54-14 71z"/><path fill="#8BC0E4" fill-rule="nonzero" stroke="#8BC0E4" d="M841 699l74-11-88-88z"/><path fill="#95C6E7" fill-rule="nonzero" stroke="#95C6E7" d="M1001 689l66-19-100-100z"/><path fill="#9ECBE9" fill-rule="nonzero" stroke="#9ECBE9" d="M1154 672l76-94-98-13z"/><path fill="#92C4E6" fill-rule="nonzero" stroke="#92C4E6" d="M915 688l86 1-34-119z"/><path fill="#59A5D9" fill-rule="nonzero" stroke="#59A5D9" d="M1224 147l-69 16 18 103z"/><path fill="#82BBE2" fill-rule="nonzero" stroke="#82BBE2" d="M744 602l97 97-14-99z"/><path fill="#98C8E7" fill-rule="nonzero" stroke="#98C8E7" d="M915 688l1 86 85-85z"/><path fill="#9BCAE8" fill-rule="nonzero" stroke="#9BCAE8" d="M1154 672l-22-107-38 47z"/><path fill="#8FC2E5" fill-rule="nonzero" stroke="#8FC2E5" d="M1221 484l86 1-62-62z"/><path fill="#77B5E0" fill-rule="nonzero" stroke="#77B5E0" d="M1352 360l-85-85-41 44z"/><path fill="#6EB0DE" fill-rule="nonzero" stroke="#6EB0DE" d="M1226 319l41-44-94-9z"/><path fill="#7FBAE2" fill-rule="nonzero" stroke="#7FBAE2" d="M1352 360l-126-41 19 104z"/><path fill="#5AA5DA" fill-rule="nonzero" stroke="#5AA5DA" d="M563 421l60 60 47-38z"/><path fill="#64ABDC" fill-rule="nonzero" stroke="#64ABDC" d="M670 443l-47 38 119 34z"/><path fill="#3595D3" fill-rule="nonzero" stroke="#3595D3" d="M704 137l4 89 136-34z"/><path fill="#3F99D5" fill-rule="nonzero" stroke="#3F99D5" d="M708 226l-89-4 45 130z"/><path fill="#55A3D9" fill-rule="nonzero" stroke="#55A3D9" d="M664 352l-101 69 107 22z"/><path fill="#A4CFEA" fill-rule="nonzero" stroke="#A4CFEA" d="M1073 761l81-89-87-2z"/><path fill="#9ECCE9" fill-rule="nonzero" stroke="#9ECCE9" d="M1067 670l87 2-60-60z"/><path fill="#3C98D4" fill-rule="nonzero" stroke="#3C98D4" d="M1131 54l-74 11 6 91z"/><path fill="#2D92D2" fill-rule="nonzero" stroke="#2D92D2" d="M1009 102l-81-81 4 89z"/><path fill="#3194D3" fill-rule="nonzero" stroke="#3194D3" d="M932 110L813 76l31 116z"/><path fill="#228FD1" fill-rule="nonzero" stroke="#228FD1" d="M928 21L813 76l119 34z"/><path fill="#77B5E0" fill-rule="nonzero" stroke="#77B5E0" d="M649 592l59 59 36-49z"/><path fill="#81BAE2" fill-rule="nonzero" stroke="#81BAE2" d="M744 602l-36 49 133 48z"/><path fill="#2C92D2" fill-rule="nonzero" stroke="#2C92D2" d="M813 76l-109 61 140 55z"/><path fill="#6AAEDD" fill-rule="nonzero" stroke="#6AAEDD" d="M623 481l26 111 93-77z"/><path fill="#63AADB" fill-rule="nonzero" stroke="#63AADB" d="M1267 275l-43-128-51 119z"/><path fill="#469CD6" fill-rule="nonzero" stroke="#469CD6" d="M1155 163l-24-109-68 102z"/><path fill="#9FCCE9" fill-rule="nonzero" stroke="#9FCCE9" d="M1335 598l-28-113-77 93z"/><path fill="#96C7E7" fill-rule="nonzero" stroke="#96C7E7" d="M1230 578l77-93-86-1z"/><path fill="#2C92D2" fill-rule="nonzero" stroke="#2C92D2" d="M1057 65L928 21l81 81z"/><path fill="#2A91D2" fill-rule="nonzero" stroke="#2A91D2" d="M580 183l39 39 56-29z"/><path fill="#3394D3" fill-rule="nonzero" stroke="#3394D3" d="M675 193l-56 29 89 4z"/><path fill="#92C4E6" fill-rule="nonzero" stroke="#92C4E6" d="M810 753l106 21-75-75z"/><path fill="#93C5E6" fill-rule="nonzero" stroke="#93C5E6" d="M841 699l75 75-1-86z"/><path fill="#A0CCE9" fill-rule="nonzero" stroke="#A0CCE9" d="M1001 689l72 72-6-91z"/><path fill="#449BD5" fill-rule="nonzero" stroke="#449BD5" d="M1234 72l-103-18 24 109z"/><path fill="#198DD0" fill-rule="nonzero" stroke="#198DD0" d="M1057 65l-93-93-36 49z"/><path fill="#88BEE3" fill-rule="nonzero" stroke="#88BEE3" d="M708 651l102 102 31-54z"/><path fill="#429AD5" fill-rule="nonzero" stroke="#429AD5" d="M619 222l-53 117 98 13z"/><path fill="#65ABDC" fill-rule="nonzero" stroke="#65ABDC" d="M623 481l-42 43 68 68z"/><path fill="#A2CEEA" fill-rule="nonzero" stroke="#A2CEEA" d="M1007 780l66-19-72-72z"/><path fill="#4C9FD7" fill-rule="nonzero" stroke="#4C9FD7" d="M566 339l-3 82 101-69z"/><path fill="#9DCBE9" fill-rule="nonzero" stroke="#9DCBE9" d="M916 774l91 6-6-91z"/><path fill="#8EC2E5" fill-rule="nonzero" stroke="#8EC2E5" d="M1307 485l33-52-95-10z"/><path fill="#65ABDC" fill-rule="nonzero" stroke="#65ABDC" d="M1267 275l60-25-103-103z"/><path fill="#5BA6DA" fill-rule="nonzero" stroke="#5BA6DA" d="M563 421l18 103 42-43z"/><path fill="#75B4DF" fill-rule="nonzero" stroke="#75B4DF" d="M1352 360l-25-110-60 25z"/><path fill="#4D9FD7" fill-rule="nonzero" stroke="#4D9FD7" d="M1224 147l10-75-79 91z"/><path fill="#88BFE4" fill-rule="nonzero" stroke="#88BFE4" d="M1340 433l12-73-107 63z"/><path fill="#0187CB" fill-rule="nonzero" stroke="#0187CB" d="M732-5l-22 63 103 18z"/><path fill="#138CD0" fill-rule="nonzero" stroke="#138CD0" d="M813 76L710 58l-6 79z"/><path fill="#188DD0" fill-rule="nonzero" stroke="#188DD0" d="M632 65l-52 118 95 10z"/><path fill="#77B5E0" fill-rule="nonzero" stroke="#77B5E0" d="M649 592l10 95 49-36z"/><path fill="#86BEE3" fill-rule="nonzero" stroke="#86BEE3" d="M708 651l27 112 75-10z"/><path fill="#73B3DF" fill-rule="nonzero" stroke="#73B3DF" d="M556 669l103 18-10-95z"/><path fill="#2C92D2" fill-rule="nonzero" stroke="#2C92D2" d="M1131 54l-64-64-10 75z"/><path fill="#0289CE" fill-rule="nonzero" stroke="#0289CE" d="M928 21L803-19l10 95z"/><path fill="#1B8DD0" fill-rule="nonzero" stroke="#1B8DD0" d="M1067-10L964-28l93 93z"/><path fill="#2A91D2" fill-rule="nonzero" stroke="#2A91D2" d="M580 183l-25 60 64-21z"/><path fill="#3695D3" fill-rule="nonzero" stroke="#3695D3" d="M619 222l-64 21 11 96z"/><path fill="#459BD6" fill-rule="nonzero" stroke="#459BD6" d="M566 339l-86-1 83 83z"/><path fill="#198DD0" fill-rule="nonzero" stroke="#198DD0" d="M632 65l43 128 29-56z"/><path fill="#80BAE2" fill-rule="nonzero" stroke="#80BAE2" d="M659 687l76 76-27-112z"/><path fill="#98C8E7" fill-rule="nonzero" stroke="#98C8E7" d="M810 753l86 86 20-65z"/><path fill="#A2CDEA" fill-rule="nonzero" stroke="#A2CDEA" d="M916 774l68 68 23-62z"/><path fill="#4A9ED7" fill-rule="nonzero" stroke="#4A9ED7" d="M1329 82l-95-10-10 75z"/><path fill="#2791D2" fill-rule="nonzero" stroke="#2791D2" d="M1131 54l30-55-94-9z"/><path fill="#A8D1EC" fill-rule="nonzero" stroke="#A8D1EC" d="M1323 671l12-73-105-20z"/><path fill="#97C7E7" fill-rule="nonzero" stroke="#97C7E7" d="M1307 485l116 31-83-83z"/><path fill="#89BFE4" fill-rule="nonzero" stroke="#89BFE4" d="M1441 449l-38-123-51 34z"/><path fill="#A7D1EB" fill-rule="nonzero" stroke="#A7D1EB" d="M1264 697l-34-119-76 94z"/><path fill="#AFD5ED" fill-rule="nonzero" stroke="#AFD5ED" d="M1243 761l21-64-110-25z"/><path fill="#0085C7" fill-rule="nonzero" stroke="#0085C7" d="M914-78L803-19l125 40z"/><path fill="#5DA7DA" fill-rule="nonzero" stroke="#5DA7DA" d="M473 501l67 67 41-44z"/><path fill="#66ACDC" fill-rule="nonzero" stroke="#66ACDC" d="M581 524l-41 44 109 24z"/><path fill="#57A4D9" fill-rule="nonzero" stroke="#57A4D9" d="M473 501l108 23-18-103z"/><path fill="#3595D3" fill-rule="nonzero" stroke="#3595D3" d="M1234 72l-73-73-30 55z"/><path fill="#69ADDD" fill-rule="nonzero" stroke="#69ADDD" d="M1396 234l-51-51-18 67z"/><path fill="#60A9DB" fill-rule="nonzero" stroke="#60A9DB" d="M1327 250l18-67-121-36z"/><path fill="#2E93D2" fill-rule="nonzero" stroke="#2E93D2" d="M1234 72l-20-105-53 32z"/><path fill="#96C7E7" fill-rule="nonzero" stroke="#96C7E7" d="M806 834l90 5-86-86z"/><path fill="#ABD3EC" fill-rule="nonzero" stroke="#ABD3EC" d="M1007 780l94 94-28-113zm66-19l109 24-28-113z"/><path fill="#A0CCE9" fill-rule="nonzero" stroke="#A0CCE9" d="M896 839l88 3-68-68z"/><path fill="#0086C8" fill-rule="nonzero" stroke="#0086C8" d="M803-19L732-5l81 81z"/><path fill="#0289CE" fill-rule="nonzero" stroke="#0289CE" d="M710 58l-78 7 72 72z"/><path fill="#B1D6EE" fill-rule="nonzero" stroke="#B1D6EE" d="M1152 840l30-55-109-24z"/><path fill="#8EC2E5" fill-rule="nonzero" stroke="#8EC2E5" d="M1441 449l-89-89-12 73z"/><path fill="#7AB7E0" fill-rule="nonzero" stroke="#7AB7E0" d="M1352 360l51-34-76-76z"/><path fill="#0084C5" fill-rule="nonzero" stroke="#0084C5" d="M655 3l-23 62 78-7z"/><path fill="#8FC3E5" fill-rule="nonzero" stroke="#8FC3E5" d="M735 763l71 71 4-81z"/><path fill="#AED5ED" fill-rule="nonzero" stroke="#AED5ED" d="M1318 751l5-80-59 26z"/><path fill="#ABD3EC" fill-rule="nonzero" stroke="#ABD3EC" d="M1264 697l59-26-93-93z"/><path fill="#A0CDE9" fill-rule="nonzero" stroke="#A0CDE9" d="M1335 598l88-82-116-31z"/><path fill="#B0D6ED" fill-rule="nonzero" stroke="#B0D6ED" d="M1182 785l61-24-89-89z"/><path fill="#0086C9" fill-rule="nonzero" stroke="#0086C9" d="M964-28l-50-50 14 99z"/><path fill="#73B3DF" fill-rule="nonzero" stroke="#73B3DF" d="M1403 326l-7-92-69 16z"/><path fill="#55A3D8" fill-rule="nonzero" stroke="#55A3D8" d="M1345 183l-16-101-105 65z"/><path fill="#2F93D2" fill-rule="nonzero" stroke="#2F93D2" d="M476 249l4 89 75-95z"/><path fill="#3997D4" fill-rule="nonzero" stroke="#3997D4" d="M555 243l-75 95 86 1z"/><path fill="#1C8ED0" fill-rule="nonzero" stroke="#1C8ED0" d="M476 249l79-6-86-86z"/><path fill="#81BBE2" fill-rule="nonzero" stroke="#81BBE2" d="M659 687l-9 76h85z"/><path fill="#8DC2E5" fill-rule="nonzero" stroke="#8DC2E5" d="M735 763l-23 62 94 9z"/><path fill="#7AB7E0" fill-rule="nonzero" stroke="#7AB7E0" d="M540 738l110 25 9-76z"/><path fill="#66ACDC" fill-rule="nonzero" stroke="#66ACDC" d="M487 600l69 69-16-101z"/><path fill="#6BAEDD" fill-rule="nonzero" stroke="#6BAEDD" d="M540 568l16 101 93-77z"/><path fill="#A8D1EB" fill-rule="nonzero" stroke="#A8D1EB" d="M1413 591l10-75-88 82z"/><path fill="#6EB0DE" fill-rule="nonzero" stroke="#6EB0DE" d="M1509 262l-84-84-29 56z"/><path fill="#53A2D8" fill-rule="nonzero" stroke="#53A2D8" d="M1411 79l-82 3 16 101z"/><path fill="#4C9FD7" fill-rule="nonzero" stroke="#4C9FD7" d="M450 393l23 108 90-80z"/><path fill="#007CB9" fill-rule="nonzero" stroke="#007CB9" d="M645-92l10 95 77-8z"/><path fill="#0082C3" fill-rule="nonzero" stroke="#0082C3" d="M732-5l-77 8 55 55z"/><path fill="#1A8DD0" fill-rule="nonzero" stroke="#1A8DD0" d="M469 157l86 86 25-60z"/><path fill="#B1D6EE" fill-rule="nonzero" stroke="#B1D6EE" d="M1101 874l51-34-79-79z"/><path fill="#A3CEEA" fill-rule="nonzero" stroke="#A3CEEA" d="M1266 869l43-42-66-66z"/><path fill="#87BEE3" fill-rule="nonzero" stroke="#87BEE3" d="M650 763l62 62 23-62z"/><path fill="#98C8E7" fill-rule="nonzero" stroke="#98C8E7" d="M1423 516l18-67-101-16z"/><path fill="#0188CC" fill-rule="nonzero" stroke="#0188CC" d="M564 82l16 101 52-118z"/><path fill="#449BD5" fill-rule="nonzero" stroke="#449BD5" d="M480 338l-30 55 113 28z"/><path fill="#0082C3" fill-rule="nonzero" stroke="#0082C3" d="M591 24l-27 58 68-17z"/><path fill="#3093D3" fill-rule="nonzero" stroke="#3093D3" d="M1310-22l-96-11 20 105z"/><path fill="#3A97D4" fill-rule="nonzero" stroke="#3A97D4" d="M413 356l37 37 30-55z"/><path fill="#AED4ED" fill-rule="nonzero" stroke="#AED4ED" d="M1323 671l90-80-78 7z"/><path fill="#9FCCE9" fill-rule="nonzero" stroke="#9FCCE9" d="M1528 536l-13-98-74 11z"/><path fill="#AFD5ED" fill-rule="nonzero" stroke="#AFD5ED" d="M1436 699l-23-108-90 80z"/><path fill="#AED5ED" fill-rule="nonzero" stroke="#AED5ED" d="M1010 953l91-79-117-32z"/><path fill="#AAD2EC" fill-rule="nonzero" stroke="#AAD2EC" d="M984 842l117 32-94-94z"/><path fill="#A3CEEA" fill-rule="nonzero" stroke="#A3CEEA" d="M898 926l86-84-88-3z"/><path fill="#9DCBE9" fill-rule="nonzero" stroke="#9DCBE9" d="M898 926l-2-87-90-5z"/><path fill="#5BA6DA" fill-rule="nonzero" stroke="#5BA6DA" d="M415 613l72-13-14-99z"/><path fill="#5DA7DA" fill-rule="nonzero" stroke="#5DA7DA" d="M473 501l14 99 53-32z"/><path fill="#74B3DF" fill-rule="nonzero" stroke="#74B3DF" d="M556 669l-16 69 119-51z"/><path fill="#85BDE3" fill-rule="nonzero" stroke="#85BDE3" d="M650 763l-23 62h85z"/><path fill="#A6CFEA" fill-rule="nonzero" stroke="#A6CFEA" d="M1309 827l9-76-75 10z"/><path fill="#ADD4EC" fill-rule="nonzero" stroke="#ADD4EC" d="M1243 761l75-10-54-54z"/><path fill="#A9D1EB" fill-rule="nonzero" stroke="#A9D1EB" d="M1243 761l-61 24 84 84z"/><path fill="#0081C1" fill-rule="nonzero" stroke="#0081C1" d="M655 3l-64 21 41 41z"/><path fill="#0188CB" fill-rule="nonzero" stroke="#0188CB" d="M489 92l-20 65 111 26z"/><path fill="#007BB8" fill-rule="nonzero" stroke="#007BB8" d="M645-92L591 24l64-21z"/><path fill="#7AB7E0" fill-rule="nonzero" stroke="#7AB7E0" d="M1477 315l-81-81 7 92z"/><path fill="#66ACDC" fill-rule="nonzero" stroke="#66ACDC" d="M1396 234l29-56-80 5z"/><path fill="#3E98D5" fill-rule="nonzero" stroke="#3E98D5" d="M1329 82l-19-104-76 94z"/><path fill="#91C4E6" fill-rule="nonzero" stroke="#91C4E6" d="M1515 438l-38-123-36 134z"/><path fill="#88BFE4" fill-rule="nonzero" stroke="#88BFE4" d="M1441 449l36-134-74 11z"/><path fill="#9DCBE9" fill-rule="nonzero" stroke="#9DCBE9" d="M838 951l60-25-92-92z"/><path fill="#0187CA" fill-rule="nonzero" stroke="#0187CA" d="M489 92l91 91-16-101z"/><path fill="#3093D3" fill-rule="nonzero" stroke="#3093D3" d="M415 273l-2 83 67-18z"/><path fill="#6FB0DE" fill-rule="nonzero" stroke="#6FB0DE" d="M487 685l53 53 16-69z"/><path fill="#97C7E7" fill-rule="nonzero" stroke="#97C7E7" d="M727 925l111 26-32-117z"/><path fill="#2B92D2" fill-rule="nonzero" stroke="#2B92D2" d="M415 273l65 65-4-89z"/><path fill="#4A9ED7" fill-rule="nonzero" stroke="#4A9ED7" d="M450 393l-61 109 84-1z"/><path fill="#7DB8E1" fill-rule="nonzero" stroke="#7DB8E1" d="M540 738l87 87 23-62z"/><path fill="#68ADDC" fill-rule="nonzero" stroke="#68ADDC" d="M487 600v85l69-16z"/><path fill="#7BB7E0" fill-rule="nonzero" stroke="#7BB7E0" d="M540 738l3 88 84-1z"/><path fill="#62A9DB" fill-rule="nonzero" stroke="#62A9DB" d="M415 613l72 72v-85z"/><path fill="#0E8BD0" fill-rule="nonzero" stroke="#0E8BD0" d="M385 158l30 115 61-24z"/><path fill="#3997D4" fill-rule="nonzero" stroke="#3997D4" d="M1403-14l-93-8 19 104z"/><path fill="#007EBD" fill-rule="nonzero" stroke="#007EBD" d="M474-8l15 100 75-10z"/><path fill="#0189CD" fill-rule="nonzero" stroke="#0189CD" d="M469 157l-84 1 91 91z"/><path fill="#ACD3EC" fill-rule="nonzero" stroke="#ACD3EC" d="M1101 874l42 42 9-76z"/><path fill="#5CA6DA" fill-rule="nonzero" stroke="#5CA6DA" d="M1425 178l-14-99-66 104z"/><path fill="#5CA6DA" fill-rule="nonzero" stroke="#5CA6DA" d="M1483 151l-72-72 14 99z"/><path fill="#A9D2EC" fill-rule="nonzero" stroke="#A9D2EC" d="M898 926l112 27-26-111z"/><path fill="#A9D2EB" fill-rule="nonzero" stroke="#A9D2EB" d="M1266 869l-84-84-30 55zm52-118l118-52-113-28z"/><path fill="#ABD3EC" fill-rule="nonzero" stroke="#ABD3EC" d="M1491 584l-68-68-10 75z"/><path fill="#A1CDEA" fill-rule="nonzero" stroke="#A1CDEA" d="M1528 536l-87-87-18 67z"/><path fill="#78B5E0" fill-rule="nonzero" stroke="#78B5E0" d="M1477 315l32-53-113-28z"/><path fill="#91C4E6" fill-rule="nonzero" stroke="#91C4E6" d="M727 925l79-91-94-9z"/><path fill="#A4CEEA" fill-rule="nonzero" stroke="#A4CEEA" d="M1220 908l46-39-114-29z"/><path fill="#3997D4" fill-rule="nonzero" stroke="#3997D4" d="M367 395l83-2-37-37z"/><path fill="#419AD5" fill-rule="nonzero" stroke="#419AD5" d="M367 395l22 107 61-109z"/><path fill="#A0CCE9" fill-rule="nonzero" stroke="#A0CCE9" d="M1438 786l-2-87-118 52z"/><path fill="#AFD5ED" fill-rule="nonzero" stroke="#AFD5ED" d="M1493 671l-2-87-78 7z"/><path fill="#80BAE2" fill-rule="nonzero" stroke="#80BAE2" d="M1565 318l-56-56-32 53z"/><path fill="#007DBC" fill-rule="nonzero" stroke="#007DBC" d="M591 24L474-8l90 90z"/><path fill="#88BFE4" fill-rule="nonzero" stroke="#88BFE4" d="M651 934l61-109h-85z"/><path fill="#8DC2E5" fill-rule="nonzero" stroke="#8DC2E5" d="M651 934l76-9-15-100z"/><path fill="#53A2D8" fill-rule="nonzero" stroke="#53A2D8" d="M389 502l26 111 58-112z"/><path fill="#A7D0EB" fill-rule="nonzero" stroke="#A7D0EB" d="M1143 916l77-8-68-68z"/><path fill="#2E92D2" fill-rule="nonzero" stroke="#2E92D2" d="M295 323l72 72 46-39z"/><path fill="#6AAEDD" fill-rule="nonzero" stroke="#6AAEDD" d="M1509 262l-26-111-58 27z"/><path fill="#449BD6" fill-rule="nonzero" stroke="#449BD6" d="M1403-14l-74 96 82-3z"/><path fill="#6EB0DE" fill-rule="nonzero" stroke="#6EB0DE" d="M465 748l75-10-53-53z"/><path fill="#73B3DF" fill-rule="nonzero" stroke="#73B3DF" d="M465 748l78 78-3-88z"/><path fill="#B1D6EE" fill-rule="nonzero" stroke="#B1D6EE" d="M1603 611l-75-75-37 48z"/><path fill="#AAD2EC" fill-rule="nonzero" stroke="#AAD2EC" d="M1491 584l37-48-105-20z"/><path fill="#8AC0E4" fill-rule="nonzero" stroke="#8AC0E4" d="M1570 408l-5-90-88-3z"/><path fill="#68ADDC" fill-rule="nonzero" stroke="#68ADDC" d="M409 692l56 56 22-63z"/><path fill="#469CD6" fill-rule="nonzero" stroke="#469CD6" d="M1488 71l-85-85 8 93z"/><path fill="#AAD2EC" fill-rule="nonzero" stroke="#AAD2EC" d="M1436 699l57-28-80-80z"/><path fill="#9FCBE8" fill-rule="nonzero" stroke="#9FCBE8" d="M1503 766l-10-95-57 28zm-65 20l-120-35-9 76z"/><path fill="#0081C2" fill-rule="nonzero" stroke="#0081C2" d="M385 73v85l84-1z"/><path fill="#2690D1" fill-rule="nonzero" stroke="#2690D1" d="M415 273l-120 50 118 33z"/><path fill="#0081C1" fill-rule="nonzero" stroke="#0081C1" d="M385 73l84 84 20-65z"/><path fill="#86BDE3" fill-rule="nonzero" stroke="#86BDE3" d="M576 944l75-10-24-109z"/><path fill="#80BAE2" fill-rule="nonzero" stroke="#80BAE2" d="M576 944l51-119-84 1z"/><path fill="#5BA6DA" fill-rule="nonzero" stroke="#5BA6DA" d="M300 668l109 24 6-79z"/><path fill="#62AADB" fill-rule="nonzero" stroke="#62AADB" d="M415 613l-6 79 78-7z"/><path fill="#50A0D8" fill-rule="nonzero" stroke="#50A0D8" d="M290 573l125 40-26-111z"/><path fill="#90C4E6" fill-rule="nonzero" stroke="#90C4E6" d="M1570 408l-93-93 38 123z"/><path fill="#6DAFDD" fill-rule="nonzero" stroke="#6DAFDD" d="M1509 262l93-77-119-34z"/><path fill="#55A3D8" fill-rule="nonzero" stroke="#55A3D8" d="M1483 151l5-80-77 8z"/><path fill="#A5CFEB" fill-rule="nonzero" stroke="#A5CFEB" d="M1587 510l-72-72 13 98z"/><path fill="#9ECBE9" fill-rule="nonzero" stroke="#9ECBE9" d="M1587 510l-17-102-55 30z"/><path fill="#0076B0" fill-rule="nonzero" stroke="#0076B0" d="M546-106l45 130 54-116z"/><path fill="#0077B2" fill-rule="nonzero" stroke="#0077B2" d="M495-72L474-8l117 32z"/><path fill="#94C4E6" fill-rule="nonzero" stroke="#94C4E6" d="M1425 858l-116-31 80 80z"/><path fill="#97C6E6" fill-rule="nonzero" stroke="#97C6E6" d="M1425 858l13-72-129 41z"/><path fill="#59A5D9" fill-rule="nonzero" stroke="#59A5D9" d="M1596 94l-108-23-5 80z"/><path fill="#B1D6EE" fill-rule="nonzero" stroke="#B1D6EE" d="M1603 611l-16-101-59 26z"/><path fill="#87BEE3" fill-rule="nonzero" stroke="#87BEE3" d="M1688 356l-95-95-28 57z"/><path fill="#AAD2EC" fill-rule="nonzero" stroke="#AAD2EC" d="M1603 611l-112-27 2 87z"/><path fill="#3796D4" fill-rule="nonzero" stroke="#3796D4" d="M281 394l31 116 55-115z"/><path fill="#429AD5" fill-rule="nonzero" stroke="#429AD5" d="M367 395l-55 115 77-8z"/><path fill="#007BB8" fill-rule="nonzero" stroke="#007BB8" d="M413 16l-28 57 104 19z"/><path fill="#108CD0" fill-rule="nonzero" stroke="#108CD0" d="M299 242l-4 81 120-50z"/><path fill="#007AB6" fill-rule="nonzero" stroke="#007AB6" d="M413 16l76 76L474-8z"/><path fill="#0074AE" fill-rule="nonzero" stroke="#0074AE" d="M546-106l-51 34 96 96z"/><path fill="#9AC8E7" fill-rule="nonzero" stroke="#9AC8E7" d="M1336 939l-27-112-43 42z"/><path fill="#6FB1DE" fill-rule="nonzero" stroke="#6FB1DE" d="M425 793l53 53-13-98z"/><path fill="#74B3DF" fill-rule="nonzero" stroke="#74B3DF" d="M465 748l13 98 65-20z"/><path fill="#69ADDD" fill-rule="nonzero" stroke="#69ADDD" d="M425 793l40-45-56-56z"/><path fill="#91C4E6" fill-rule="nonzero" stroke="#91C4E6" d="M1642 395l-77-77 5 90z"/><path fill="#7EB9E1" fill-rule="nonzero" stroke="#7EB9E1" d="M1565 318l28-57-84 1z"/><path fill="#0073AB" fill-rule="nonzero" stroke="#0073AB" d="M406-76l7 92 61-24z"/><path fill="#0188CC" fill-rule="nonzero" stroke="#0188CC" d="M299 242l116 31-30-115z"/><path fill="#66ABDC" fill-rule="nonzero" stroke="#66ABDC" d="M340 793h85l-16-101z"/><path fill="#9AC8E7" fill-rule="nonzero" stroke="#9AC8E7" d="M1438 786l65-20-67-67z"/><path fill="#7DB8E1" fill-rule="nonzero" stroke="#7DB8E1" d="M476 929l100 15-33-118z"/><path fill="#90C1E4" fill-rule="nonzero" stroke="#90C1E4" d="M1524 872l-21-106-65 20z"/><path fill="#4099D5" fill-rule="nonzero" stroke="#4099D5" d="M1496-6l-93-8 85 85z"/><path fill="#007FBF" fill-rule="nonzero" stroke="#007FBF" d="M310 168l75-10-52-52z"/><path fill="#0083C5" fill-rule="nonzero" stroke="#0083C5" d="M310 168l-11 74 86-84z"/><path fill="#2A91D2" fill-rule="nonzero" stroke="#2A91D2" d="M295 323l-14 71 86 1z"/><path fill="#1E8ED1" fill-rule="nonzero" stroke="#1E8ED1" d="M226 424l55-30-75-75z"/><path fill="#95C5E6" fill-rule="nonzero" stroke="#95C5E6" d="M1336 939l53-32-80-80z"/><path fill="#92C3E5" fill-rule="nonzero" stroke="#92C3E5" d="M1605 783l-15-100-87 83z"/><path fill="#429AD5" fill-rule="nonzero" stroke="#429AD5" d="M1565-22l-69 16-8 77z"/><path fill="#007DBC" fill-rule="nonzero" stroke="#007DBC" d="M333 106l52 52V73z"/><path fill="#0077B1" fill-rule="nonzero" stroke="#0077B1" d="M302-10l31 116 52-33z"/><path fill="#79B6E0" fill-rule="nonzero" stroke="#79B6E0" d="M1690 273l-88-88-9 76z"/><path fill="#76B4DF" fill-rule="nonzero" stroke="#76B4DF" d="M1593 261l9-76-93 77z"/><path fill="#429AD5" fill-rule="nonzero" stroke="#429AD5" d="M240 523l50 50 22-63z"/><path fill="#479CD6" fill-rule="nonzero" stroke="#479CD6" d="M312 510l-22 63 99-71z"/><path fill="#A1CDE9" fill-rule="nonzero" stroke="#A1CDE9" d="M1590 683l13-72-110 60z"/><path fill="#9ECBE9" fill-rule="nonzero" stroke="#9ECBE9" d="M1587 510l55-115-72 13z"/><path fill="#A6D0EB" fill-rule="nonzero" stroke="#A6D0EB" d="M1677 515l-35-120-55 115z"/><path fill="#9BC9E7" fill-rule="nonzero" stroke="#9BC9E7" d="M1503 766l87-83-97-12z"/><path fill="#8EC1E4" fill-rule="nonzero" stroke="#8EC1E4" d="M1524 872l-86-86-13 72z"/><path fill="#53A2D8" fill-rule="nonzero" stroke="#53A2D8" d="M290 573l10 95 115-55z"/><path fill="#66ACDC" fill-rule="nonzero" stroke="#66ACDC" d="M1665 163l-69-69 6 91z"/><path fill="#62AADB" fill-rule="nonzero" stroke="#62AADB" d="M1602 185l-6-91-113 57z"/><path fill="#74B3DF" fill-rule="nonzero" stroke="#74B3DF" d="M413 866l63 63 2-83z"/><path fill="#78B5E0" fill-rule="nonzero" stroke="#78B5E0" d="M478 846l-2 83 67-103z"/><path fill="#70B1DE" fill-rule="nonzero" stroke="#70B1DE" d="M413 866l65-20-53-53z"/><path fill="#6AAEDD" fill-rule="nonzero" stroke="#6AAEDD" d="M340 793l73 73 12-73z"/><path fill="#0075AE" fill-rule="nonzero" stroke="#0075AE" d="M413 16L302-10l83 83z"/><path fill="#3394D3" fill-rule="nonzero" stroke="#3394D3" d="M226 424l86 86-31-116z"/><path fill="#3896D4" fill-rule="nonzero" stroke="#3896D4" d="M226 424l14 99 72-13z"/><path fill="#4A9ED7" fill-rule="nonzero" stroke="#4A9ED7" d="M290 573l-68 17 78 78z"/><path fill="#188DD0" fill-rule="nonzero" stroke="#188DD0" d="M281 394l14-71-89-4z"/><path fill="#0188CB" fill-rule="nonzero" stroke="#0188CB" d="M222 250l73 73 4-81z"/><path fill="#5EA7DA" fill-rule="nonzero" stroke="#5EA7DA" d="M300 668l40 125 69-101z"/><path fill="#59A5D9" fill-rule="nonzero" stroke="#59A5D9" d="M217 755l123 38-40-125z"/><path fill="#007DBB" fill-rule="nonzero" stroke="#007DBB" d="M257 115l-8 77 61-24z"/><path fill="#0082C3" fill-rule="nonzero" stroke="#0082C3" d="M310 168l-61 24 50 50z"/><path fill="#007CB9" fill-rule="nonzero" stroke="#007CB9" d="M257 115l53 53 23-62z"/><path fill="#B2D7EE" fill-rule="nonzero" stroke="#B2D7EE" d="M1603 611l74-96-90-5z"/><path fill="#90C3E5" fill-rule="nonzero" stroke="#90C3E5" d="M1642 395l46-39-123-38z"/><path fill="#AAD2EC" fill-rule="nonzero" stroke="#AAD2EC" d="M1685 608l-8-93-74 96z"/><path fill="#9AC9E8" fill-rule="nonzero" stroke="#9AC9E8" d="M1764 432l-76-76-46 39z"/><path fill="#4C9FD7" fill-rule="nonzero" stroke="#4C9FD7" d="M1596 94l-31-116-77 93z"/><path fill="#489DD6" fill-rule="nonzero" stroke="#489DD6" d="M1658-14l-93-8 31 116z"/><path fill="#0083C4" fill-rule="nonzero" stroke="#0083C4" d="M249 192l-27 58 77-8z"/><path fill="#A1CCE9" fill-rule="nonzero" stroke="#A1CCE9" d="M1590 683l95-75-82 3z"/><path fill="#0076B0" fill-rule="nonzero" stroke="#0076B0" d="M247 20l10 95 76-9z"/><path fill="#007EBC" fill-rule="nonzero" stroke="#007EBC" d="M132 160l18 103 72-13z"/><path fill="#0070A7" fill-rule="nonzero" stroke="#0070A7" d="M302-10l111 26-7-92z"/><path fill="#0188CC" fill-rule="nonzero" stroke="#0188CC" d="M222 250l-16 69 89 4z"/><path fill="#3896D4" fill-rule="nonzero" stroke="#3896D4" d="M133 501l89 89 18-67z"/><path fill="#85BDE3" fill-rule="nonzero" stroke="#85BDE3" d="M1688 356l2-83-97-12z"/><path fill="#73B3DF" fill-rule="nonzero" stroke="#73B3DF" d="M1690 273l-25-110-63 22z"/><path fill="#2F93D2" fill-rule="nonzero" stroke="#2F93D2" d="M133 501l107 22-14-99z"/><path fill="#429AD5" fill-rule="nonzero" stroke="#429AD5" d="M240 523l-18 67 68-17z"/><path fill="#8BBEE3" fill-rule="nonzero" stroke="#8BBEE3" d="M1577 840l28-57-102-17z"/><path fill="#99C7E7" fill-rule="nonzero" stroke="#99C7E7" d="M1702 710l-17-102-95 75z"/><path fill="#A7D1EB" fill-rule="nonzero" stroke="#A7D1EB" d="M1677 515l60-25-95-95z"/><path fill="#8CC1E4" fill-rule="nonzero" stroke="#8CC1E4" d="M1688 356l59-26-57-57z"/><path fill="#89BDE2" fill-rule="nonzero" stroke="#89BDE2" d="M1524 872l53-32-74-74z"/><path fill="#7FB6E0" fill-rule="nonzero" stroke="#7FB6E0" d="M1604 952l-27-112-53 32z"/><path fill="#90C2E4" fill-rule="nonzero" stroke="#90C2E4" d="M1605 783l37-48-52-52z"/><path fill="#8ABEE3" fill-rule="nonzero" stroke="#8ABEE3" d="M1702 710l-60 25 102 17z"/><path fill="#66ACDC" fill-rule="nonzero" stroke="#66ACDC" d="M304 842l109 24-73-73z"/><path fill="#429AD5" fill-rule="nonzero" stroke="#429AD5" d="M131 584l92 92-1-86z"/><path fill="#4C9ED7" fill-rule="nonzero" stroke="#4C9ED7" d="M222 590l1 86 77-8z"/><path fill="#67ACDC" fill-rule="nonzero" stroke="#67ACDC" d="M1760 173l-85-85-10 75z"/><path fill="#60A8DB" fill-rule="nonzero" stroke="#60A8DB" d="M1665 163l10-75-79 6z"/><path fill="#5DA7DA" fill-rule="nonzero" stroke="#5DA7DA" d="M217 755l87 87 36-49z"/><path fill="#A7D0EB" fill-rule="nonzero" stroke="#A7D0EB" d="M1767 605l-90-90 8 93z"/><path fill="#AED4ED" fill-rule="nonzero" stroke="#AED4ED" d="M1767 605l-30-115-60 25z"/><path fill="#74B4DF" fill-rule="nonzero" stroke="#74B4DF" d="M1690 273l70-100-95-10z"/><path fill="#0086C8" fill-rule="nonzero" stroke="#0086C8" d="M150 263l7 92 49-36z"/><path fill="#0D8BCF" fill-rule="nonzero" stroke="#0D8BCF" d="M206 319l-49 36 69 69z"/><path fill="#0084C5" fill-rule="nonzero" stroke="#0084C5" d="M150 263l56 56 16-69z"/><path fill="#007DBC" fill-rule="nonzero" stroke="#007DBC" d="M222 250l27-58-117-32z"/><path fill="#006A9E" fill-rule="nonzero" stroke="#006A9E" d="M214-98l33 118 55-30z"/><path fill="#0073AB" fill-rule="nonzero" stroke="#0073AB" d="M302-10l-55 30 86 86z"/><path fill="#97C7E7" fill-rule="nonzero" stroke="#97C7E7" d="M1764 432l-17-102-59 26z"/><path fill="#87BCE2" fill-rule="nonzero" stroke="#87BCE2" d="M1652 830l-10-95-37 48z"/><path fill="#0078B4" fill-rule="nonzero" stroke="#0078B4" d="M156 99l93 93 8-77z"/><path fill="#ACD4EC" fill-rule="nonzero" stroke="#ACD4EC" d="M1832 500l-68-68-27 58z"/><path fill="#A3CEEA" fill-rule="nonzero" stroke="#A3CEEA" d="M1737 490l27-58-122-37z"/><path fill="#84BAE1" fill-rule="nonzero" stroke="#84BAE1" d="M1652 830l-47-47-28 57z"/><path fill="#92C3E5" fill-rule="nonzero" stroke="#92C3E5" d="M1642 735l60-25-112-27z"/><path fill="#52A1D8" fill-rule="nonzero" stroke="#52A1D8" d="M1675 88l-17-102-62 108z"/><path fill="#4B9ED7" fill-rule="nonzero" stroke="#4B9ED7" d="M1742-15l-84 1 17 102z"/><path fill="#4A9ED7" fill-rule="nonzero" stroke="#4A9ED7" d="M170 793l47-38-107-107z"/><path fill="#51A1D8" fill-rule="nonzero" stroke="#51A1D8" d="M223 676l-6 79 83-87z"/><path fill="#67ACDC" fill-rule="nonzero" stroke="#67ACDC" d="M304 842v85l109-61z"/><path fill="#8BC1E4" fill-rule="nonzero" stroke="#8BC1E4" d="M1828 326l-67-67-14 71z"/><path fill="#86BEE3" fill-rule="nonzero" stroke="#86BEE3" d="M1747 330l14-71-71 14z"/><path fill="#0073AC" fill-rule="nonzero" stroke="#0073AC" d="M247 20l-91 79 101 16z"/><path fill="#0F8BD0" fill-rule="nonzero" stroke="#0F8BD0" d="M115 398l111 26-69-69z"/><path fill="#1E8ED1" fill-rule="nonzero" stroke="#1E8ED1" d="M115 398l18 103 93-77z"/><path fill="#7CB5DF" fill-rule="nonzero" stroke="#7CB5DF" d="M1604 952l48-122-75 10z"/><path fill="#0086C8" fill-rule="nonzero" stroke="#0086C8" d="M41 324l74 74 42-43z"/><path fill="#60A9DB" fill-rule="nonzero" stroke="#60A9DB" d="M221 844l83 83v-85z"/><path fill="#6DB0DE" fill-rule="nonzero" stroke="#6DB0DE" d="M1779 107l-19 66 101 16z"/><path fill="#7CB8E1" fill-rule="nonzero" stroke="#7CB8E1" d="M1761 259l-1-86-70 100z"/><path fill="#8CBFE3" fill-rule="nonzero" stroke="#8CBFE3" d="M1744 752v-85l-42 43z"/><path fill="#96C6E6" fill-rule="nonzero" stroke="#96C6E6" d="M1702 710l42-43-59-59z"/><path fill="#3695D3" fill-rule="nonzero" stroke="#3695D3" d="M133 501l-2 83 91 6z"/><path fill="#3696D3" fill-rule="nonzero" stroke="#3696D3" d="M110 648l21-64-45 40z"/><path fill="#9CC9E8" fill-rule="nonzero" stroke="#9CC9E8" d="M1744 667l23-62-82 3z"/><path fill="#7CB8E1" fill-rule="nonzero" stroke="#7CB8E1" d="M1839 252l-79-79 1 86z"/><path fill="#00689C" fill-rule="nonzero" stroke="#00689C" d="M155 13l92 7-33-118z"/><path fill="#006EA4" fill-rule="nonzero" stroke="#006EA4" d="M155 13l1 86 91-79z"/><path fill="#0085C7" fill-rule="nonzero" stroke="#0085C7" d="M41 324l3 88 71-14z"/><path fill="#0078B3" fill-rule="nonzero" stroke="#0078B3" d="M156 99l-24 61 117 32z"/><path fill="#5AA5D9" fill-rule="nonzero" stroke="#5AA5D9" d="M217 755l4 89 83-2z"/><path fill="#53A2D8" fill-rule="nonzero" stroke="#53A2D8" d="M170 793l51 51-4-89z"/><path fill="#85BAE1" fill-rule="nonzero" stroke="#85BAE1" d="M1652 830l92-78-102-17z"/><path fill="#7BB4DF" fill-rule="nonzero" stroke="#7BB4DF" d="M1765 858l-21-106-92 78z"/><path fill="#95C5E6" fill-rule="nonzero" stroke="#95C5E6" d="M1744 667l83-2-60-60z"/><path fill="#97C7E7" fill-rule="nonzero" stroke="#97C7E7" d="M1828 326l-81 4 17 102z"/><path fill="#64ABDC" fill-rule="nonzero" stroke="#64ABDC" d="M1760 173l19-66-104-19z"/><path fill="#499DD6" fill-rule="nonzero" stroke="#499DD6" d="M110 648l107 107 6-79z"/><path fill="#2D92D2" fill-rule="nonzero" stroke="#2D92D2" d="M86 624l45-40-72-72z"/><path fill="#3F99D5" fill-rule="nonzero" stroke="#3F99D5" d="M131 584l-21 64 113 28z"/><path fill="#ACD3EC" fill-rule="nonzero" stroke="#ACD3EC" d="M1832 500l-95-10 30 115z"/><path fill="#9FCCE9" fill-rule="nonzero" stroke="#9FCCE9" d="M1859 442l-31-116-64 106z"/><path fill="#0073AB" fill-rule="nonzero" stroke="#0073AB" d="M156 99l-70 15 46 46z"/><path fill="#A2CDE9" fill-rule="nonzero" stroke="#A2CDE9" d="M1862 615l-30-115-65 105z"/><path fill="#56A3D9" fill-rule="nonzero" stroke="#56A3D9" d="M1779 107l-37-122-67 103z"/><path fill="#2991D2" fill-rule="nonzero" stroke="#2991D2" d="M59 512l72 72 2-83z"/><path fill="#419AD5" fill-rule="nonzero" stroke="#419AD5" d="M110 648l-47 38 107 107z"/><path fill="#148CD0" fill-rule="nonzero" stroke="#148CD0" d="M59 512l74-11-89-89z"/><path fill="#60A9DB" fill-rule="nonzero" stroke="#60A9DB" d="M256 964l48-37-83-83z"/><path fill="#5AA6DA" fill-rule="nonzero" stroke="#5AA6DA" d="M170 878l86 86-35-120z"/><path fill="#87BEE3" fill-rule="nonzero" stroke="#87BEE3" d="M1828 326l11-74-78 7z"/><path fill="#0083C4" fill-rule="nonzero" stroke="#0083C4" d="M157 355l-7-92-109 61z"/><path fill="#0A8BCF" fill-rule="nonzero" stroke="#0A8BCF" d="M44 412l89 89-18-103z"/><path fill="#007DBC" fill-rule="nonzero" stroke="#007DBC" d="M41 324l109-61-106-21z"/><path fill="#006BA0" fill-rule="nonzero" stroke="#006BA0" d="M70 13l86 86-1-86z"/><path fill="#006DA3" fill-rule="nonzero" stroke="#006DA3" d="M70 13l16 101 70-15z"/><path fill="#ABD3EC" fill-rule="nonzero" stroke="#ABD3EC" d="M1832 500l27-58-95-10z"/><path fill="#0079B5" fill-rule="nonzero" stroke="#0079B5" d="M61 174l89 89-18-103z"/><path fill="#0073AC" fill-rule="nonzero" stroke="#0073AC" d="M86 114l-25 60 71-14z"/><path fill="#85BAE1" fill-rule="nonzero" stroke="#85BAE1" d="M1837 760l-10-95-83 87z"/><path fill="#8CBFE3" fill-rule="nonzero" stroke="#8CBFE3" d="M1744 752l83-87-83 2z"/><path fill="#54A2D8" fill-rule="nonzero" stroke="#54A2D8" d="M170 793v85l51-34z"/><path fill="#4EA0D7" fill-rule="nonzero" stroke="#4EA0D7" d="M70 863l100 15v-85z"/><path fill="#007AB6" fill-rule="nonzero" stroke="#007AB6" d="M61 174l-17 68 106 21z"/><path fill="#72AFDC" fill-rule="nonzero" stroke="#72AFDC" d="M1698 961l67-103-113-28z"/><path fill="#78B6E0" fill-rule="nonzero" stroke="#78B6E0" d="M1839 252l22-63-101-16z"/><path fill="#006394" fill-rule="nonzero" stroke="#006394" d="M214-98l-71 14 12 97z"/><path fill="#2F93D2" fill-rule="nonzero" stroke="#2F93D2" d="M-14 609l77 77 23-62z"/><path fill="#3796D4" fill-rule="nonzero" stroke="#3796D4" d="M86 624l-23 62 47-38z"/><path fill="#2690D1" fill-rule="nonzero" stroke="#2690D1" d="M-14 609l100 15-27-112z"/><path fill="#57A4D9" fill-rule="nonzero" stroke="#57A4D9" d="M1835 78l-93-93 37 122z"/><path fill="#0071A8" fill-rule="nonzero" stroke="#0071A8" d="M86 114l-115 55 90 5z"/><path fill="#74AFDD" fill-rule="nonzero" stroke="#74AFDD" d="M1698 961l-46-131-48 122z"/><path fill="#97C6E6" fill-rule="nonzero" stroke="#97C6E6" d="M1827 665l35-50-95-10z"/><path fill="#67ACDC" fill-rule="nonzero" stroke="#67ACDC" d="M1861 189l-26-111-56 29z"/><path fill="#76B1DD" fill-rule="nonzero" stroke="#76B1DD" d="M1828 836l-84-84 21 106z"/><path fill="#7AB4DE" fill-rule="nonzero" stroke="#7AB4DE" d="M1828 836l9-76-93-8z"/><path fill="#006596" fill-rule="nonzero" stroke="#006596" d="M143-84L70 13h85z"/><path fill="#0074AE" fill-rule="nonzero" stroke="#0074AE" d="M-29 169l2 87 71-14z"/><path fill="#005F8D" fill-rule="nonzero" stroke="#005F8D" d="M31-111L70 13l73-97z"/><path fill="#3896D4" fill-rule="nonzero" stroke="#3896D4" d="M-27 766l83-2 7-78z"/><path fill="#429AD5" fill-rule="nonzero" stroke="#429AD5" d="M63 686l-7 78 114 29z"/><path fill="#0188CB" fill-rule="nonzero" stroke="#0188CB" d="M-28 425l87 87-15-100z"/><path fill="#0289CD" fill-rule="nonzero" stroke="#0289CD" d="M-28 425l13 98 74-11z"/><path fill="#0083C4" fill-rule="nonzero" stroke="#0083C4" d="M-28 425l72-13-3-88z"/><path fill="#007EBD" fill-rule="nonzero" stroke="#007EBD" d="M-28 425l69-101-95-10z"/><path fill="#50A0D8" fill-rule="nonzero" stroke="#50A0D8" d="M1835 78l16-69-109-24z"/><path fill="#007AB6" fill-rule="nonzero" stroke="#007AB6" d="M-27 256l68 68 3-82z"/><path fill="#6BAADA" fill-rule="nonzero" stroke="#6BAADA" d="M1827 920l1-84-63 22z"/><path fill="#0074AD" fill-rule="nonzero" stroke="#0074AD" d="M-29 169l73 73 17-68z"/><path fill="#168DD0" fill-rule="nonzero" stroke="#168DD0" d="M-15 523l1 86 73-97z"/><path fill="#006CA1" fill-rule="nonzero" stroke="#006CA1" d="M-45 68l16 101 115-55z"/><path fill="#419AD5" fill-rule="nonzero" stroke="#419AD5" d="M-8 870l78-7-14-99z"/><path fill="#479CD6" fill-rule="nonzero" stroke="#479CD6" d="M56 764l14 99 100-70z"/><path fill="#00699C" fill-rule="nonzero" stroke="#00699C" d="M-45 68l131 46L70 13z"/><path fill="#007AB6" fill-rule="nonzero" stroke="#007AB6" d="M-27 256l-27 58 95 10z"/><path fill="#2891D2" fill-rule="nonzero" stroke="#2891D2" d="M-14 609l-44 41 121 36z"/><path fill="#2E93D2" fill-rule="nonzero" stroke="#2E93D2" d="M-58 650l31 116 90-80z"/><path fill="#006393" fill-rule="nonzero" stroke="#006393" d="M-40-12l-5 80L70 13z"/><path fill="#3A97D4" fill-rule="nonzero" stroke="#3A97D4" d="M-27 766l19 104 64-106z"/><path fill="#005E8D" fill-rule="nonzero" stroke="#005E8D" d="M31-111l-71 99L70 13z"/><path fill="#01689B" fill-opacity=".5" style="mix-blend-mode:multiply" d="M0 0h1810v850H0z"/></g></svg>